<svg id="Layer_1" data-name="Layer 1" xmlns="http://www.w3.org/2000/svg" xmlns:xlink="http://www.w3.org/1999/xlink" viewBox="0 0 1974.81 629.39"><defs><style>.cls-1,.cls-5{fill:#414d56;}.cls-2,.cls-6{fill:none;}.cls-3{fill:url(#linear-gradient);}.cls-4{isolation:isolate;}.cls-5{stroke:#414d56;stroke-width:1.4px;}.cls-5,.cls-6{stroke-miterlimit:10;}.cls-6{stroke:#a6a6a6;stroke-width:9px;}</style><linearGradient id="linear-gradient" x1="232.99" y1="-502.09" x2="620.79" y2="-502.09" gradientTransform="translate(-98.19 804.29)" gradientUnits="userSpaceOnUse"><stop offset="0" stop-color="#de922f"/><stop offset="0.99" stop-color="#fccb28"/></linearGradient></defs><path class="cls-1" d="M1974.81,220.4s-163.53,102.62-167,105c-1.66,1.13,43.17,105,43.07,105h-91.55s-25.09-58.1-26.09-58.1c-.5,0-95.15,58.1-95.15,58.1h-93.74c-.4,0,168.81-103.39,169.4-103.86.29-.28-42.71-99.6-45.64-106.14h92s25.61,59.14,26.05,59.66,99.13-59.66,99.13-59.66Z" transform="translate(0 0)"/><path class="cls-1" d="M1637.25,220.4c.68,0-28.36,48.86-29.1,50.41-.68.09-184.61.51-184.71.51-.76,1.22-17.6,26.83-17.57,27.86,0,0,161.52-.25,161.4,0-.42.88-31,52.76-31,52.76-4.1,0-107.91-.19-160,0h-1.8c-2.55,4.41-5.2,8.74-7.74,13.15-4.25,7.33-7.73,13.44-7.72,13.72s173.14.73,184.74,1.09c.6,0-29.81,50.5-29.81,50.5H1258.21c2-3.29,61.46-104.21,71.19-120.56,6.51-11.09,20.3-34.29,30.59-51.77s22.19-37.67,22.19-37.67Z" transform="translate(0 0)"/><path class="cls-1" d="M730,220.4c.68,0-28.36,48.86-29.1,50.41-.68.09-184.61.51-184.71.51-.76,1.23-17.6,26.83-17.57,27.86,0,0,161.52-.25,161.4,0-.42.88-31,52.76-31,52.76-4.1,0-107.91-.19-160,0h-1.8c-2.55,4.42-5.2,8.74-7.74,13.15-4.25,7.33-7.73,13.44-7.72,13.72s173.14.74,184.74,1.1c.6,0-29.8,50.49-29.8,50.49H351c2-3.29,61.46-104.21,71.19-120.56,6.51-11.08,20.3-34.29,30.59-51.77S475,220.4,475,220.4Z" transform="translate(0 0)"/><path class="cls-1" d="M1351.93,220.64s-3.25,5.87-6.84,11.79S1334.23,250.84,1329,260l-9.82,16.72-52.39.38-51.8-.28-45.42,76.75L1124,430.68H1054.7c.17-.32,4.31-8.47,9.7-17.4,33.53-56.47,79.76-135.59,79.74-136.43h-51.9c-25,0-52.1.09-52,0,.58-.57,9.47-15.13,17.3-28.57s16.69-27.6,16.69-27.6h113.54c7.89,0,25.15.17,25.18.17C1289.32,220.68,1351.88,220.64,1351.93,220.64Z" transform="translate(0 0)"/><path class="cls-1" d="M1026.59,252.2c2.12,9.1.81,20.28-3.77,32.39-12.2,31.28-55.51,68.38-93.39,80.22-5.94,1.78-6.82,2.44-6,4.78.35,1.32,1.52,6.11,2.47,10.43s3.78,16.72,6.25,27.43,5.35,22,5.48,22.82c-2.09.07-79.6,0-79.6,0-.56-1.6-3.9-14.84-6.48-25.92s-5.29-22.64-6.21-25.93l-1.6-5.73H740.6l-16.05,27.05c-8.78,14.93-17.62,29.84-18.08,30.67H637.36c.42-.86,10.08-18,20.56-35.74s24.36-41.23,30.87-52.31c38.9-65.84,66.85-113.17,69.41-117.21l3.06-4.75H857c61.52,0,130.37,0,132.54.19a24,24,0,0,1,3.35.6C1003.68,223.6,1021.18,231.9,1026.59,252.2Zm-84.2,22.19a11.8,11.8,0,0,0-3.84-.51H798.4c-1.72,2.87-25,42.25-24.93,43.19,1.08,0,126.63,0,144.51,0s39.51-36.79,24.41-42.65Z" transform="translate(0 0)"/><line class="cls-2" x1="1606.27" y1="270.81" x2="1353.5" y2="271.84"/><line class="cls-2" x1="1565.46" y1="299.18" x2="1386.16" y2="299.18"/><path class="cls-2" d="M1405.55,299.09" transform="translate(0 0)"/><path class="cls-1" d="M1405.55,299.09" transform="translate(0 0)"/><line class="cls-2" x1="1536.22" y1="349.83" x2="1352.52" y2="349.83"/><path class="cls-1" d="M1415.72,349.73" transform="translate(0 0)"/><path class="cls-1" d="M1405.55,299.09" transform="translate(0 0)"/><polygon class="cls-3" points="488.5 0 522.6 205.2 471.1 175.3 218.9 604.4 134.8 456.1 343.4 101.2 292 71.3 488.5 0"/><polyline class="cls-2" points="471.1 175.3 522.6 205.2 488.5 0"/><polyline class="cls-2" points="343.4 101.2 292 71.3 488.5 0"/><line class="cls-2" x1="218.9" y1="604.4" x2="134.8" y2="456.1"/><line class="cls-2" x1="343.4" y1="101.2" x2="134.8" y2="456.1"/><line class="cls-2" x1="218.9" y1="604.4" x2="471.1" y2="175.3"/><polygon class="cls-1" points="172.11 220.5 207.01 282 119.91 430.4 0.71 220.2 172.11 220.5"/><line class="cls-2" x1="119.2" y1="430.4" y2="220.2"/><line class="cls-2" x1="206.3" y1="282" x2="171.4" y2="220.5"/><line class="cls-2" x1="206.3" y1="282" x2="119.2" y2="430.4"/><line class="cls-2" y1="220.2" x2="171.4" y2="220.5"/><g class="cls-4"><path class="cls-5" d="M366,604.8V545H342.38V534.86h58.79V545H377.53V604.8Z" transform="translate(0 0)"/></g><g class="cls-4"><g class="cls-4"><path class="cls-5" d="M466.59,584.09H428.1a11.55,11.55,0,0,0,4.69,8.88A15.29,15.29,0,0,0,443,596.55a16.82,16.82,0,0,0,8.51-2,11,11,0,0,0,5-6l9.43,2.76A18.23,18.23,0,0,1,461,599a22.61,22.61,0,0,1-8.17,5.08,29.84,29.84,0,0,1-9.78,1.59,26.77,26.77,0,0,1-10.31-1.82,26.11,26.11,0,0,1-8.49-5.25,24.72,24.72,0,0,1-5.63-8,22.3,22.3,0,0,1-2-9.7,24.58,24.58,0,0,1,3.28-12.37,24,24,0,0,1,9.13-9,25.91,25.91,0,0,1,13-3.33q11.65,0,18.12,6.8t6.6,17.84A31.87,31.87,0,0,1,466.59,584.09Zm-24.44-18.83a13.52,13.52,0,0,0-8.93,3,11.83,11.83,0,0,0-4.47,7.78h26.51a10.62,10.62,0,0,0-4-7.87A14.64,14.64,0,0,0,442.15,565.26Z" transform="translate(0 0)"/><path class="cls-5" d="M518.48,605.64a27.46,27.46,0,0,1-10.32-1.87,26,26,0,0,1-8.47-5.27,24.33,24.33,0,0,1-5.59-8,22.78,22.78,0,0,1-1.93-9.73,23.33,23.33,0,0,1,3.47-12.36,24.51,24.51,0,0,1,9.54-9,27.59,27.59,0,0,1,13.4-3.24q9.2,0,15.4,4.5a19.2,19.2,0,0,1,8,10.82l-10.13,3.19a13.32,13.32,0,0,0-3.87-5.86c-2.29-2.06-5.41-3.09-9.39-3.09A14.85,14.85,0,0,0,508,569.9a14.45,14.45,0,0,0-4.27,10.82,15.18,15.18,0,0,0,4.17,10.92A14.56,14.56,0,0,0,518.68,596q9.69,0,13.36-9.13L542.32,590a21.27,21.27,0,0,1-7.55,10.45Q528.52,605.65,518.48,605.64Z" transform="translate(0 0)"/><path class="cls-5" d="M604.65,604.8V578.14q0-5.52-2.88-8.71c-1.92-2.12-4.71-3.18-8.35-3.18a11.33,11.33,0,0,0-8.54,3.23,12.07,12.07,0,0,0-3.13,8.76V604.8H570.48V532.1h11.27v31a20.29,20.29,0,0,1,5.17-4.4,19.74,19.74,0,0,1,5.41-2.11,26.23,26.23,0,0,1,4.57-.47q9.39,0,14.15,5.34t4.77,13.92V604.8Z" transform="translate(0 0)"/><path class="cls-5" d="M681.82,604.8V578.14q0-5.52-2.88-8.71t-8.34-3.18a11.3,11.3,0,0,0-8.54,3.23q-3.13,3.22-3.13,8.76V604.8H647.66V557.11h11v6.42a18.61,18.61,0,0,1,5.36-4.59,21,21,0,0,1,5.42-2.3,26.52,26.52,0,0,1,4.66-.47q9.39,0,14.16,5.34T693,575.43V604.8Z" transform="translate(0 0)"/><path class="cls-5" d="M721.36,580.91A23.2,23.2,0,0,1,725,568.26a24.83,24.83,0,0,1,9.73-9,28.87,28.87,0,0,1,13.46-3.14,28.32,28.32,0,0,1,13.21,3.14,25.11,25.11,0,0,1,9.73,8.86,23.86,23.86,0,0,1,3.58,12.55,22.48,22.48,0,0,1-3.48,12.58,25.58,25.58,0,0,1-9.83,9.16,26.53,26.53,0,0,1-13.31,3.18,28.64,28.64,0,0,1-13.36-3.23,24.83,24.83,0,0,1-9.73-8.95A23,23,0,0,1,721.36,580.91Zm11.56-.19a14.93,14.93,0,0,0,4.28,10.73,14.62,14.62,0,0,0,11,4.54,14.39,14.39,0,0,0,10.87-4.45,15.63,15.63,0,0,0-.1-21.36,14.09,14.09,0,0,0-10.87-4.45,14.83,14.83,0,0,0-11,4.36A14.5,14.5,0,0,0,732.92,580.72Z" transform="translate(0 0)"/><path class="cls-5" d="M814.92,532.1v72.7H803.64V532.1Z" transform="translate(0 0)"/><path class="cls-5" d="M843.77,580.91a23.21,23.21,0,0,1,3.68-12.65,24.77,24.77,0,0,1,9.73-9,28.87,28.87,0,0,1,13.46-3.14,28.32,28.32,0,0,1,13.21,3.14,25.11,25.11,0,0,1,9.73,8.86,23.84,23.84,0,0,1,3.57,12.55,22.47,22.47,0,0,1-3.47,12.58,25.65,25.65,0,0,1-9.83,9.16,26.53,26.53,0,0,1-13.31,3.18,28.61,28.61,0,0,1-13.36-3.23,24.77,24.77,0,0,1-9.73-8.95A23,23,0,0,1,843.77,580.91Zm11.57-.19a15,15,0,0,0,4.27,10.73,14.66,14.66,0,0,0,11,4.54,14.39,14.39,0,0,0,10.87-4.45,14.8,14.8,0,0,0,4.17-10.63,14.62,14.62,0,0,0-4.27-10.73,14.09,14.09,0,0,0-10.87-4.45,14.87,14.87,0,0,0-11,4.36A14.49,14.49,0,0,0,855.34,580.72Z" transform="translate(0 0)"/><path class="cls-5" d="M947.22,605.17a24.93,24.93,0,0,1-9.86-2,22.55,22.55,0,0,1-7.87-5.41,25.78,25.78,0,0,1-5.07-7.84,23.69,23.69,0,0,1-1.83-9.12,23.22,23.22,0,0,1,1.73-8.73,27.68,27.68,0,0,1,4.87-7.85,22.26,22.26,0,0,1,8-5.74,25.43,25.43,0,0,1,10.35-2.13,23.24,23.24,0,0,1,8.94,1.92,17.3,17.3,0,0,1,7.65,6.14v-7.31h11v47.41a23.24,23.24,0,0,1-3.67,12.93,22.36,22.36,0,0,1-9.78,8.38,32.19,32.19,0,0,1-13.91,2.86q-12.4,0-20-7.12a16.37,16.37,0,0,1-5-9l10.57-2.91a11.16,11.16,0,0,0,4.87,6.65,15,15,0,0,0,9.09,2.86,21.66,21.66,0,0,0,6.1-.84,17.51,17.51,0,0,0,5.24-2.51,11.56,11.56,0,0,0,3.73-4.45,14.36,14.36,0,0,0,1.36-6.39v-7.87a15.2,15.2,0,0,1-5.16,4.82,24.92,24.92,0,0,1-6.21,2.58A27,27,0,0,1,947.22,605.17ZM964,580.63a14.38,14.38,0,0,0-4.17-10.54q-4-4.22-10.88-4.22a14.75,14.75,0,0,0-11,4.22,15.21,15.21,0,0,0,21.85,21.17A14.8,14.8,0,0,0,964,580.63Z" transform="translate(0 0)"/></g><g class="cls-4"><path class="cls-5" d="M1023.84,599.41l-22.44-42.3h12.81L1030,588.4l14.55-31.29h12.22L1022,628.32h-12Z" transform="translate(0 0)"/></g><g class="cls-4"><path class="cls-5" d="M1154.7,605.64a38.36,38.36,0,0,1-16.34-3.44,36,36,0,0,1-13.15-9.86,31.64,31.64,0,0,1-5.69-10.05,36.18,36.18,0,0,1-2.06-12.2,35.52,35.52,0,0,1,3.08-14.62,34.87,34.87,0,0,1,8.19-11.48,41.23,41.23,0,0,1,12.12-7.4,38.5,38.5,0,0,1,14.35-2.81,43.08,43.08,0,0,1,11.15,1.43,34.93,34.93,0,0,1,9.31,3.87,42,42,0,0,1,6.7,5.48,29.59,29.59,0,0,1,7.1,12.18L1178,560.48a21.15,21.15,0,0,0-3.67-7.59,20.75,20.75,0,0,0-4.28-4.21,20,20,0,0,0-6.45-3.23,27.64,27.64,0,0,0-8.49-1.27,25.38,25.38,0,0,0-17.58,6.89,23.65,23.65,0,0,0-5.73,8.2,25.79,25.79,0,0,0-2.12,10.4,26.75,26.75,0,0,0,2.09,10.51,23.14,23.14,0,0,0,5.66,8.22,25.83,25.83,0,0,0,17.58,6.89,26.31,26.31,0,0,0,7.94-1.19,22.26,22.26,0,0,0,6.41-3.12,27.91,27.91,0,0,0,4.47-4.22,24.26,24.26,0,0,0,4.37-8l11.47,3.74a29.89,29.89,0,0,1-10.18,14.76,37.39,37.39,0,0,1-14.75,7.31A44.76,44.76,0,0,1,1154.7,605.64Z" transform="translate(0 0)"/><path class="cls-5" d="M1214.05,580.91a23.2,23.2,0,0,1,3.67-12.65,24.79,24.79,0,0,1,9.74-9,28.8,28.8,0,0,1,13.45-3.14,28.32,28.32,0,0,1,13.21,3.14,25,25,0,0,1,9.73,8.86,23.77,23.77,0,0,1,3.58,12.55A22.4,22.4,0,0,1,1264,593.3a25.51,25.51,0,0,1-9.83,9.16,26.5,26.5,0,0,1-13.31,3.18,28.6,28.6,0,0,1-13.35-3.23,24.79,24.79,0,0,1-9.74-8.95A23,23,0,0,1,1214.05,580.91Zm11.57-.19a14.93,14.93,0,0,0,4.27,10.73,14.64,14.64,0,0,0,11,4.54,14.43,14.43,0,0,0,10.88-4.45,14.8,14.8,0,0,0,4.17-10.63,14.62,14.62,0,0,0-4.27-10.73,14.13,14.13,0,0,0-10.88-4.45,14.83,14.83,0,0,0-11,4.36A14.49,14.49,0,0,0,1225.62,580.72Z" transform="translate(0 0)"/><path class="cls-5" d="M1330.5,604.8V578.14q0-5.52-2.88-8.71t-8.34-3.18a11.3,11.3,0,0,0-8.54,3.23q-3.13,3.22-3.13,8.76V604.8h-11.27V557.11h11v6.42a18.61,18.61,0,0,1,5.36-4.59,21,21,0,0,1,5.42-2.3,26.52,26.52,0,0,1,4.66-.47q9.39,0,14.16,5.34t4.76,13.92V604.8Z" transform="translate(0 0)"/><path class="cls-5" d="M1390,605.64a25.13,25.13,0,0,1-10-1.89,17.19,17.19,0,0,1-6.58-4.81,13.14,13.14,0,0,1-3.37-7.21l9.63-2.39a9.48,9.48,0,0,0,3.45,5.5,10.5,10.5,0,0,0,6.73,2.09,8.25,8.25,0,0,0,5.26-1.5,4.92,4.92,0,0,0,1.89-4.07q0-3.95-6-5.25l-6.41-1.45q-6.55-1.41-10-5a12.05,12.05,0,0,1-3.45-8.6q0-6.07,5.21-10.54a19.06,19.06,0,0,1,12.71-4.4q10.68.13,15.55,6.32a13.82,13.82,0,0,1,3.07,6.42l-9.48,2.48a8.7,8.7,0,0,0-3-4.77,9.49,9.49,0,0,0-6.11-1.83,7.94,7.94,0,0,0-4.86,1.55,4.59,4.59,0,0,0-.67,7.09,7.05,7.05,0,0,0,3.7,1.71l6.9,1.36q6.8,1.46,10.58,5.25a12.91,12.91,0,0,1,3.77,9.13,13.3,13.3,0,0,1-1.14,5.41,14.79,14.79,0,0,1-3.35,4.73,15.78,15.78,0,0,1-5.84,3.42A24.35,24.35,0,0,1,1390,605.64Z" transform="translate(0 0)"/><path class="cls-5" d="M1448.45,557.11v26.66q0,5.57,2.81,8.73t8.26,3.17a11.34,11.34,0,0,0,8.55-3.24q3.12-3.23,3.12-8.76V557.11h11.33V604.8h-11v-6.42a18.37,18.37,0,0,1-5.31,4.59,17.84,17.84,0,0,1-5.51,2.3,20.31,20.31,0,0,1-4.67.47,20.54,20.54,0,0,1-10.4-2.53,15.56,15.56,0,0,1-6.48-6.94,21.47,21.47,0,0,1-2-9.79V557.11Z" transform="translate(0 0)"/><path class="cls-5" d="M1526.12,532.1v72.7h-11.27V532.1Z" transform="translate(0 0)"/><path class="cls-5" d="M1587,557.11v9.6H1574.2v22.72a5.67,5.67,0,0,0,1.81,4.67q1.82,1.47,5.93,1.47a32.08,32.08,0,0,0,4.57-.37v9.13a32.59,32.59,0,0,1-8,.94q-8,0-11.72-3.42T1562.92,590V566.71h-9.78v-9.6h9.78V542.35h11.28v14.76Z" transform="translate(0 0)"/><path class="cls-5" d="M1656.29,604.8h-11a32.4,32.4,0,0,1-.49-6.51,15,15,0,0,1-6.51,5.67,20.92,20.92,0,0,1-8.34,1.68q-7.5,0-12.22-4a12.49,12.49,0,0,1-4.76-10.07v-.47a12,12,0,0,1,2.7-7.89,16.11,16.11,0,0,1,7.08-4.75,31.53,31.53,0,0,1,11.17-1.92h6.31c3.11,0,4.67-1.35,4.67-4a6.51,6.51,0,0,0-2.54-5.2c-1.78-1.41-4.27-2.11-7.45-2.11a12.13,12.13,0,0,0-7.42,2.18,8.7,8.7,0,0,0-3.55,5.78l-10.28-2.2a15,15,0,0,1,3.48-7.21,19.52,19.52,0,0,1,7.94-5.72,25.16,25.16,0,0,1,10.28-1.83q14.2,0,18.92,9.8a18.64,18.64,0,0,1,1.69,8.43v22.72A73.31,73.31,0,0,0,1656.29,604.8Zm-11.52-19.3V584h-10.88a12.92,12.92,0,0,0-6.6,1.69,5.66,5.66,0,0,0-3.08,4.92,5.75,5.75,0,0,0,2.23,4.73,9.09,9.09,0,0,0,5.81,1.78q5.87,0,9.19-3.14A11.09,11.09,0,0,0,1644.77,585.5Z" transform="translate(0 0)"/></g><g class="cls-4"><path class="cls-5" d="M1721.85,604.8V578.14q0-5.52-2.88-8.71c-1.92-2.12-4.71-3.18-8.35-3.18a11.33,11.33,0,0,0-8.54,3.23,12.07,12.07,0,0,0-3.13,8.76V604.8h-11.27V557.11h11v6.42a18.48,18.48,0,0,1,5.36-4.59,20.9,20.9,0,0,1,5.41-2.3,26.63,26.63,0,0,1,4.67-.47q9.39,0,14.15,5.34t4.77,13.92V604.8Z" transform="translate(0 0)"/></g><g class="cls-4"><path class="cls-5" d="M1792.42,557.11v9.6h-12.81v22.72a5.67,5.67,0,0,0,1.81,4.67c1.21,1,3.18,1.47,5.93,1.47a32.08,32.08,0,0,0,4.57-.37v9.13a32.59,32.59,0,0,1-8,.94q-8,0-11.72-3.42T1768.33,590V566.71h-9.78v-9.6h9.78V542.35h11.28v14.76Z" transform="translate(0 0)"/><path class="cls-5" d="M1837.86,605.64a25,25,0,0,1-9.95-1.89,17.12,17.12,0,0,1-6.58-4.81,13.16,13.16,0,0,1-3.38-7.21l9.63-2.39a9.48,9.48,0,0,0,3.45,5.5,10.52,10.52,0,0,0,6.73,2.09,8.28,8.28,0,0,0,5.27-1.5,4.94,4.94,0,0,0,1.88-4.07q0-3.95-6-5.25l-6.4-1.45q-6.55-1.41-10-5A12.05,12.05,0,0,1,1819,571q0-6.07,5.21-10.54a19.09,19.09,0,0,1,12.72-4.4q10.66.13,15.54,6.32a13.85,13.85,0,0,1,3.08,6.42l-9.49,2.48a8.63,8.63,0,0,0-3-4.77,9.51,9.51,0,0,0-6.11-1.83,8,8,0,0,0-4.87,1.55,4.61,4.61,0,0,0-.67,7.09,7.05,7.05,0,0,0,3.7,1.71l6.9,1.36q6.81,1.46,10.58,5.25a12.91,12.91,0,0,1,3.77,9.13,13.3,13.3,0,0,1-1.14,5.41,14.79,14.79,0,0,1-3.35,4.73,15.7,15.7,0,0,1-5.84,3.42A24.27,24.27,0,0,1,1837.86,605.64Z" transform="translate(0 0)"/></g></g><line class="cls-6" x1="343.91" y1="491.35" x2="1849.81" y2="491.35"/><path class="cls-1" d="M1074.36,220.4" transform="translate(0 0)"/><path class="cls-1" d="M1352.06,220.4" transform="translate(0 0)"/><path class="cls-1" d="M1351.75,221" transform="translate(0 0)"/><polygon class="cls-1" points="1040.37 276.54 1214.94 276.54 1319.27 276.54 1352.06 220.4 1074.36 220.4 1040.37 276.54"/></svg>